<svg id="组_12" data-name="组 12" xmlns="http://www.w3.org/2000/svg" width="110" height="31" viewBox="0 0 110 31">
  <defs>
    <style>
      .cls-1 {
        fill: #4a58ff;
        fill-rule: evenodd;
      }
    </style>
  </defs>
  <g id="组_11" data-name="组 11">
    <path id="Z_拷贝_2" data-name="Z 拷贝 2" class="cls-1" d="M45.02,20.056h7.968l-0.726,4.106H36.23L55.953,6.671l-10.93,13.2Zm-0.764-9.043,0-.187H36.315L37.038,6.74H53.021L33.36,24.141Z"/>
    <path id="Pass" class="cls-1" d="M58.2,23.573h2.116l1.02-5.784h2.422a11.624,11.624,0,0,0,2.767-.294,5.411,5.411,0,0,0,2.021-.929A4.791,4.791,0,0,0,69.9,14.92a8.645,8.645,0,0,0,.772-2.445,8.471,8.471,0,0,0,.132-2.351A2.775,2.775,0,0,0,70.11,8.5a3.486,3.486,0,0,0-1.68-.94,10.758,10.758,0,0,0-2.814-.306H61.078Zm3.447-7.547,1.223-6.936H65.1a8.317,8.317,0,0,1,1.873.176,2.268,2.268,0,0,1,1.133.576,1.8,1.8,0,0,1,.474,1.046,5.326,5.326,0,0,1-.08,1.587,6.92,6.92,0,0,1-.5,1.716,2.921,2.921,0,0,1-.851,1.093,3.189,3.189,0,0,1-1.336.576,9.784,9.784,0,0,1-1.934.165H61.648Zm16.435-5.337q-0.761.047-1.482,0.141l-0.315,1.787a14.208,14.208,0,0,1,1.46-.212q0.753-.07,1.388-0.07a5.14,5.14,0,0,1,1.542.188,1.806,1.806,0,0,1,.859.529,1.478,1.478,0,0,1,.325.823A3.967,3.967,0,0,1,81.8,14.92l-0.187,1.058H77.738a9.785,9.785,0,0,0-2.095.212,5.262,5.262,0,0,0-1.707.682,4.065,4.065,0,0,0-1.242,1.246,5.112,5.112,0,0,0-.7,1.9,3.2,3.2,0,0,0,.553,2.8,4.081,4.081,0,0,0,3.153.988,7.556,7.556,0,0,0,1.436-.141,6.58,6.58,0,0,0,1.38-.423,6.05,6.05,0,0,0,1.19-.682,4.187,4.187,0,0,0,.914-0.917l-0.034,1.928H82.3l1.588-9.005a5.211,5.211,0,0,0,.054-1.575,2.188,2.188,0,0,0-.58-1.246,3.237,3.237,0,0,0-1.409-.811,8.225,8.225,0,0,0-2.429-.294Q78.843,10.641,78.083,10.688Zm-3.708,10.9A1.823,1.823,0,0,1,74.09,20a3.685,3.685,0,0,1,.4-1.2,2.11,2.11,0,0,1,.695-0.741,2.654,2.654,0,0,1,1.028-.364,9.076,9.076,0,0,1,1.38-.094h3.738l-0.369,2.093a4.837,4.837,0,0,1-1.935,1.775,6.063,6.063,0,0,1-2.841.647A2.39,2.39,0,0,1,74.374,21.586Zm18.884,1.246a3.916,3.916,0,0,0,1.726-2.786,4.815,4.815,0,0,0,.062-1.552,2.023,2.023,0,0,0-.493-1.07,3.019,3.019,0,0,0-1.106-.729,12.8,12.8,0,0,0-1.748-.552,11.449,11.449,0,0,1-1.167-.318,1.686,1.686,0,0,1-.662-0.376A0.969,0.969,0,0,1,89.6,14.92a2.435,2.435,0,0,1,.035-0.8,1.872,1.872,0,0,1,.927-1.458,4.654,4.654,0,0,1,2.077-.376,9.319,9.319,0,0,1,1.668.141,6.24,6.24,0,0,1,1.278.353l0.444-1.716a5.34,5.34,0,0,0-1.322-.306,13.687,13.687,0,0,0-1.8-.117,6.038,6.038,0,0,0-3.587.941,3.78,3.78,0,0,0-1.58,2.492,5.093,5.093,0,0,0-.08,1.387,1.951,1.951,0,0,0,.386,1.011A2.611,2.611,0,0,0,89,17.2a7.879,7.879,0,0,0,1.645.541,13.713,13.713,0,0,1,1.4.4,2.268,2.268,0,0,1,.781.435,0.965,0.965,0,0,1,.3.611,3.366,3.366,0,0,1-.058.929,1.977,1.977,0,0,1-1.012,1.54,5.112,5.112,0,0,1-2.271.412q-0.423,0-.922-0.035t-0.98-.106q-0.482-.071-0.923-0.165T86.2,21.574L85.9,23.314q0.246,0.07.666,0.153a9.211,9.211,0,0,0,.93.129q0.509,0.047,1.032.082t0.993,0.035A6.922,6.922,0,0,0,93.258,22.832Zm11.262,0a3.914,3.914,0,0,0,1.726-2.786,4.822,4.822,0,0,0,.062-1.552,2.029,2.029,0,0,0-.493-1.07,3.014,3.014,0,0,0-1.106-.729,12.821,12.821,0,0,0-1.748-.552,11.383,11.383,0,0,1-1.167-.318,1.685,1.685,0,0,1-.662-0.376,0.968,0.968,0,0,1-.272-0.529,2.455,2.455,0,0,1,.036-0.8,1.872,1.872,0,0,1,.927-1.458,4.65,4.65,0,0,1,2.076-.376,9.312,9.312,0,0,1,1.668.141,6.228,6.228,0,0,1,1.278.353l0.444-1.716a5.34,5.34,0,0,0-1.322-.306,13.678,13.678,0,0,0-1.8-.117,6.037,6.037,0,0,0-3.587.941A3.779,3.779,0,0,0,99,14.074a5.1,5.1,0,0,0-.08,1.387,1.952,1.952,0,0,0,.386,1.011,2.612,2.612,0,0,0,.953.729,7.882,7.882,0,0,0,1.645.541,13.713,13.713,0,0,1,1.4.4,2.259,2.259,0,0,1,.781.435,0.965,0.965,0,0,1,.3.611,3.35,3.35,0,0,1-.058.929,1.977,1.977,0,0,1-1.012,1.54,5.115,5.115,0,0,1-2.271.412q-0.423,0-.923-0.035t-0.98-.106q-0.482-.071-0.923-0.165t-0.755-.188l-0.307,1.74q0.246,0.07.666,0.153a9.211,9.211,0,0,0,.929.129q0.509,0.047,1.032.082t0.993,0.035A6.921,6.921,0,0,0,104.52,22.832Z"/>
  </g>
  <path id="形状_1" data-name="形状 1" class="cls-1" d="M14.657,29.931a1.758,1.758,0,0,1-.768-0.673A1.213,1.213,0,0,1,15.017,27.5a12.075,12.075,0,0,0,5.3-1.2,12.091,12.091,0,0,0,7.116-10.08,12.426,12.426,0,0,0-10.3-13.5A12.553,12.553,0,0,0,2.674,12.7c-0.058.318-.1,0.64-0.153,0.959-0.03.174,0.023,0.233,0.208,0.231,1.072-.011,2.145.021,3.215-0.024a1.237,1.237,0,0,1,1.467,1.308A7.687,7.687,0,1,0,16.285,7.5c0,0.825.008,1.643,0,2.462,0,0.237.177,0.209,0.3,0.247a5.069,5.069,0,1,1-6.486,5.665,5.535,5.535,0,0,1-.07-0.765,1.221,1.221,0,1,1,2.44-.04,2.643,2.643,0,1,0,2.8-2.641,1.3,1.3,0,0,1-1.411-1.457c-0.017-1.607-.014-3.215,0-4.822A1.192,1.192,0,0,1,15.08,4.968,10.1,10.1,0,1,1,5.127,16.8a0.457,0.457,0,0,0-.558-0.5c-0.989.044-1.982-.017-2.971,0.024a1.506,1.506,0,0,1-1.6-.9V13.64c0.091-.528.073-1.069,0.186-1.6A15.147,15.147,0,0,1,12,.291C12.551,0.17,13.121.19,13.68,0.1h0.489a0.106,0.106,0,0,0,.163,0h1.221A0.186,0.186,0,0,0,15.8.1H16.2A15.294,15.294,0,0,1,18.487.4,15.438,15.438,0,0,1,25.04,3.837a15,15,0,0,1,4.738,8.208c0.121,0.553.1,1.12,0.187,1.676v0.486a0.184,0.184,0,0,0,0,.243v1.135a0.184,0.184,0,0,0,0,.243V16.4c-0.091.528-.073,1.069-0.186,1.6A15.145,15.145,0,0,1,17.969,29.744c-0.583.125-1.179,0.1-1.765,0.186H15.8a0.106,0.106,0,0,0-.163,0H14.657Z"/>
</svg>
